<svg width="27" height="26" viewBox="0 0 27 26" fill="none" xmlns="http://www.w3.org/2000/svg">
<path d="M13.5013 3.25V22.75C9.70963 22.75 6.89216 17.7878 6.89216 17.7878H3.7513C3.15299 17.7878 2.66797 17.3028 2.66797 16.7045V9.21418C2.66797 8.61586 3.15299 8.13085 3.7513 8.13085H6.89216C6.89216 8.13085 9.70963 3.25 13.5013 3.25Z" fill="#FFD174" stroke="black" stroke-width="2" stroke-linejoin="round"/>
<path d="M17.8359 8.125C18.1735 8.42644 18.4795 8.764 18.7482 9.13185C19.5361 10.2106 20.0026 11.5496 20.0026 13C20.0026 14.4379 19.5441 15.7661 18.7686 16.84C18.495 17.2188 18.1821 17.5659 17.8359 17.875" stroke="black" stroke-width="2" stroke-linecap="round" stroke-linejoin="round"/>
<path d="M19.0469 22.3098C22.2144 20.4192 24.3358 16.9578 24.3358 13.0009C24.3358 9.10553 22.2798 5.69032 19.1937 3.78125" stroke="black" stroke-width="2" stroke-linecap="round"/>
</svg>
