<svg width="45" height="37" viewBox="0 0 45 37" fill="none" xmlns="http://www.w3.org/2000/svg">
<mask id="mask0_501_717" style="mask-type:luminance" maskUnits="userSpaceOnUse" x="0" y="5" width="13" height="27">
<path d="M0 5.36621H12.7535V31.6328H0V5.36621Z" fill="white"/>
</mask>
<g mask="url(#mask0_501_717)">
<path d="M10.1769 11.5049C9.94108 11.3064 2.52965 6.36357 1.79799 5.971C0.881202 5.47805 0.0988477 6.01115 0.0371415 7.09295C0.0217147 7.345 0.101052 19.4166 0.107664 20.2307C0.00628787 21.8189 0.477904 23.1995 1.58863 24.3438C2.12636 24.9014 12.0237 31.2049 12.0325 31.1826C12.1956 31.0331 12.2573 17.7682 12.1471 17.0232C12.4292 14.8396 11.8959 12.9548 10.1769 11.5049Z" fill="#00D7FF"/>
</g>
<path d="M27.9362 29.9832C27.9495 27.9111 27.9803 12.0543 27.9715 11.8937C27.901 10.0981 27.1803 8.61038 25.7104 7.6178C23.1738 5.90699 17.5938 2.39169 17.4086 2.31808C17.1949 2.21994 16.9899 2.17979 16.8026 2.18871C16.6307 2.19094 16.4808 2.23332 16.3508 2.32031C16.0136 2.51883 15.7888 2.92924 15.7558 3.4891C15.7448 3.701 15.7866 29.7156 15.7756 30.7015C15.7712 31.0985 15.8549 31.3327 16.2472 31.5669C17.7546 32.4636 19.2334 33.4093 20.6923 34.3885C21.5452 34.9618 22.3231 34.9462 23.165 34.3841C24.4212 33.5476 25.6707 32.6889 26.9886 31.9573C27.8393 31.4866 28.1831 30.9178 27.9362 29.9832Z" fill="#009CDF"/>
<mask id="mask1_501_717" style="mask-type:luminance" maskUnits="userSpaceOnUse" x="31" y="0" width="13" height="37">
<path d="M31.0156 0.421875H43.7911V36.5786H31.0156V0.421875Z" fill="white"/>
</mask>
<g mask="url(#mask1_501_717)">
<path d="M43.5245 11.0972C43.5444 10.7649 43.5466 10.437 43.5245 10.1202C43.5245 10.0979 43.5245 10.0756 43.5245 10.0533C43.4077 8.06593 42.4755 6.56033 40.8557 5.47853C39.064 4.28297 37.2877 3.06287 35.452 1.94092C34.7027 1.48366 33.9776 0.957262 33.138 0.638297C33.1335 0.636067 33.1269 0.631605 33.1225 0.629375C32.8669 0.493313 32.6223 0.43755 32.3997 0.448703C32.0427 0.426398 31.7914 0.557998 31.6416 0.872502C31.4829 1.09332 31.3815 1.38998 31.3595 1.75133C31.3551 1.84724 31.4961 33.9266 31.4653 36.0701C31.6372 36.3378 31.8157 36.1616 31.9699 36.0612C34.3589 34.5021 36.7456 32.9407 39.1323 31.3793C41.4287 30.2306 43.2777 28.6871 43.5069 25.8833C43.5995 24.748 43.5223 12.2615 43.5245 11.0972Z" fill="#1B46EB"/>
</g>
</svg>
