<svg width="36" height="36" viewBox="0 0 36 36" fill="none" xmlns="http://www.w3.org/2000/svg">
<mask id="mask0_514_544" style="mask-type:luminance" maskUnits="userSpaceOnUse" x="0" y="8" width="12" height="25">
<path d="M0 8.90137H11.9243V32.5429H0V8.90137Z" fill="white"/>
</mask>
<g mask="url(#mask0_514_544)">
<path d="M9.51359 14.4265C9.29311 14.2479 2.36356 9.79902 1.67947 9.44569C0.822288 9.00201 0.0908004 9.48182 0.0331062 10.4555C0.0186824 10.6824 0.0928614 21.5475 0.0990431 22.2803C0.00425856 23.7097 0.445212 24.9524 1.48372 25.9823C1.98648 26.4842 11.2403 32.1576 11.2486 32.1376C11.401 32.0031 11.4587 20.0639 11.3557 19.3933C11.6194 17.4279 11.1208 15.7315 9.51359 14.4265Z" fill="#00D7FF"/>
</g>
<path d="M23.527 31.6555C23.5394 29.7904 23.5682 15.5184 23.56 15.3738C23.494 13.7577 22.8202 12.4187 21.4459 11.5253C19.0742 9.98545 13.8569 6.82148 13.6839 6.75523C13.484 6.66689 13.2924 6.63075 13.1172 6.63878C12.9565 6.64079 12.8164 6.67894 12.6948 6.75723C12.3795 6.93591 12.1694 7.30531 12.1385 7.80921C12.1282 7.99994 12.1673 31.4146 12.157 32.3019C12.1529 32.6593 12.2312 32.8701 12.598 33.0809C14.0074 33.8879 15.39 34.7391 16.754 35.6205C17.5515 36.1364 18.2788 36.1224 19.066 35.6165C20.2405 34.8636 21.4088 34.0907 22.641 33.4322C23.4363 33.0086 23.7578 32.4967 23.527 31.6555Z" fill="#009CDF"/>
<mask id="mask1_514_544" style="mask-type:luminance" maskUnits="userSpaceOnUse" x="24" y="0" width="12" height="33">
<path d="M24.0547 0H35.9996V32.5432H24.0547V0Z" fill="white"/>
</mask>
<g mask="url(#mask1_514_544)">
<path d="M35.7492 9.60989C35.7677 9.31076 35.7698 9.01564 35.7492 8.73056C35.7492 8.71048 35.7492 8.69041 35.7492 8.67033C35.64 6.88156 34.7684 5.52643 33.2539 4.55275C31.5787 3.47667 29.9179 2.37852 28.2015 1.36869C27.5009 0.957135 26.823 0.483343 26.0379 0.196256C26.0338 0.194248 26.0276 0.190233 26.0235 0.188225C25.7845 0.0657619 25.5558 0.0155719 25.3477 0.0256098C25.0139 0.00553406 24.779 0.123982 24.6388 0.407054C24.4905 0.605806 24.3957 0.872817 24.3751 1.19805C24.371 1.28437 24.5028 30.1577 24.474 32.087C24.6347 32.3279 24.8016 32.1693 24.9459 32.0789C27.1795 30.6756 29.411 29.2703 31.6426 27.865C33.7896 26.8311 35.5184 25.4418 35.7327 22.9183C35.8193 21.8964 35.7471 10.6579 35.7492 9.60989Z" fill="#1B46EB"/>
</g>
</svg>
