<svg width="36" height="36" viewBox="0 0 36 36" fill="none" xmlns="http://www.w3.org/2000/svg">
<path fill-rule="evenodd" clip-rule="evenodd" d="M5.08606 22.4992V7.75491C5.08606 6.82791 5.83194 6.08203 6.75781 6.08203H29.2578C30.1848 6.08203 30.9318 6.82791 30.9318 7.75491V22.4992C30.9318 23.4262 30.1848 24.172 29.2578 24.172H13.5078L11.8203 24.1867L5.07031 30.9367V25.3117L5.08606 22.4992Z" fill="#1B46EB"/>
<path d="M15.2479 9.5625V11.826H12.9844V14.0591H15.2479V16.3159H12.9844V18.549H15.2479V20.8125H17.481V18.549H19.7006V20.8125H21.9326V18.549H24.1961V16.3159H21.9326V14.0591H24.1961V11.826H21.9326V9.5625H19.7006V11.826H17.481V9.5625H15.2479ZM17.481 14.0591H19.7006V16.3159H17.481V14.0591Z" fill="#E6E7E8"/>
<path fill-rule="evenodd" clip-rule="evenodd" d="M6.75781 5.51892C6.16559 5.52129 5.59834 5.75789 5.17979 6.17686C4.76123 6.59584 4.52534 7.16324 4.52356 7.75546V22.4986L4.50781 25.3089V30.9339C4.50784 31.045 4.5408 31.1537 4.60254 31.2462C4.66428 31.3386 4.75203 31.4106 4.8547 31.4532C4.95738 31.4959 5.07038 31.5071 5.17943 31.4855C5.28849 31.464 5.38871 31.4106 5.46744 31.3321L12.0554 24.7464L13.5101 24.7329H29.2578C29.8502 24.7305 30.4177 24.4942 30.8366 24.0752C31.2556 23.6563 31.4919 23.0888 31.4943 22.4964V7.75327C31.4922 7.16064 31.256 6.59286 30.837 6.17371C30.4181 5.75455 29.8504 5.518 29.2578 5.51562H6.75781V5.51892ZM6.75781 6.64392H29.2578C29.8822 6.64392 30.3693 7.12996 30.3693 7.75546V22.4986C30.3713 22.6451 30.3439 22.7907 30.2887 22.9265C30.2336 23.0623 30.1518 23.1856 30.0482 23.2893C29.9446 23.393 29.8213 23.4749 29.6856 23.5302C29.5498 23.5855 29.4044 23.613 29.2578 23.6112H13.5078H13.5033L11.8158 23.6248C11.6681 23.6257 11.5267 23.6847 11.4221 23.789L5.63281 29.5794V25.3145L5.64856 22.5031V7.75999C5.64856 7.13562 6.13231 6.64845 6.75781 6.64845V6.64392Z" fill="black"/>
<path d="M15.2462 8.99805C15.097 8.99805 14.954 9.05735 14.8485 9.16284C14.743 9.26833 14.6837 9.41136 14.6837 9.56055V11.2638H12.9805C12.8313 11.2638 12.6882 11.3231 12.5827 11.4286C12.4772 11.5341 12.418 11.6772 12.418 11.8263V14.0583C12.418 14.2075 12.4772 14.3506 12.5827 14.4561C12.6882 14.5615 12.8313 14.6208 12.9805 14.6208H14.6837V15.7526H12.9805C12.8313 15.7526 12.6882 15.8119 12.5827 15.9174C12.4772 16.0229 12.418 16.1659 12.418 16.3151V18.5482C12.418 18.6974 12.4772 18.8405 12.5827 18.946C12.6882 19.0515 12.8313 19.1107 12.9805 19.1107H14.6837V20.8105C14.6837 20.9597 14.743 21.1029 14.8485 21.2084C14.954 21.3139 15.097 21.373 15.2462 21.373H17.4782C17.6274 21.373 17.7705 21.3139 17.876 21.2084C17.9815 21.1029 18.0407 20.9597 18.0407 20.8105V19.1107H19.1353V20.8105C19.1353 20.9597 19.1946 21.1029 19.3001 21.2084C19.4056 21.3139 19.5487 21.373 19.6978 21.373H21.9298C22.079 21.373 22.2221 21.3139 22.3276 21.2084C22.4331 21.1029 22.4923 20.9597 22.4923 20.8105V19.1107H24.1933C24.3425 19.1107 24.4856 19.0515 24.5911 18.946C24.6966 18.8405 24.7558 18.6974 24.7558 18.5482V16.3151C24.7558 16.1659 24.6966 16.0229 24.5911 15.9174C24.4856 15.8119 24.3425 15.7526 24.1933 15.7526H22.4923V14.6208H24.1933C24.3425 14.6208 24.4856 14.5615 24.5911 14.4561C24.6966 14.3506 24.7558 14.2075 24.7558 14.0583V11.8263C24.7558 11.6772 24.6966 11.5341 24.5911 11.4286C24.4856 11.3231 24.3425 11.2638 24.1933 11.2638H22.4923V9.56055C22.4923 9.41136 22.4331 9.26833 22.3276 9.16284C22.2221 9.05735 22.079 8.99805 21.9298 8.99805H19.6978C19.5487 8.99805 19.4056 9.05735 19.3001 9.16284C19.1946 9.26833 19.1353 9.41136 19.1353 9.56055V11.2638H18.0407V9.56055C18.0407 9.41136 17.9815 9.26833 17.876 9.16284C17.7705 9.05735 17.6274 8.99805 17.4782 8.99805H15.2462ZM15.8087 10.123H16.9157V11.8263C16.9157 11.9755 16.975 12.1186 17.0805 12.224C17.186 12.3295 17.329 12.3888 17.4782 12.3888H19.6978C19.847 12.3888 19.9901 12.3295 20.0956 12.224C20.2011 12.1186 20.2603 11.9755 20.2603 11.8263V10.123H21.3673V11.8263C21.3673 11.9755 21.4266 12.1186 21.5321 12.224C21.6376 12.3295 21.7807 12.3888 21.9298 12.3888H23.6308V13.4958H21.9298C21.7807 13.4958 21.6376 13.5552 21.5321 13.6606C21.4266 13.7661 21.3673 13.9092 21.3673 14.0583V16.3151C21.3673 16.4643 21.4266 16.6073 21.5321 16.7128C21.6376 16.8183 21.7807 16.8776 21.9298 16.8776H23.6308V17.9857H21.9298C21.7807 17.9857 21.6376 18.045 21.5321 18.1505C21.4266 18.256 21.3673 18.399 21.3673 18.5482V20.248H20.2603V18.5482C20.2603 18.399 20.2011 18.256 20.0956 18.1505C19.9901 18.045 19.847 17.9857 19.6978 17.9857H17.4782C17.329 17.9857 17.186 18.045 17.0805 18.1505C16.975 18.256 16.9157 18.399 16.9157 18.5482V20.248H15.8087V18.5482C15.8087 18.399 15.7495 18.256 15.644 18.1505C15.5385 18.045 15.3954 17.9857 15.2462 17.9857H13.543V16.8776H15.2462C15.3954 16.8776 15.5385 16.8183 15.644 16.7128C15.7495 16.6073 15.8087 16.4643 15.8087 16.3151V14.0583C15.8087 13.9092 15.7495 13.7661 15.644 13.6606C15.5385 13.5552 15.3954 13.4958 15.2462 13.4958H13.543V12.3888H15.2462C15.3954 12.3888 15.5385 12.3295 15.644 12.224C15.7495 12.1186 15.8087 11.9755 15.8087 11.8263V10.123ZM17.4782 13.4958C17.329 13.4958 17.186 13.5552 17.0805 13.6606C16.975 13.7661 16.9157 13.9092 16.9157 14.0583V16.3151C16.9157 16.4643 16.975 16.6073 17.0805 16.7128C17.186 16.8183 17.329 16.8776 17.4782 16.8776H19.6978C19.847 16.8776 19.9901 16.8183 20.0956 16.7128C20.2011 16.6073 20.2603 16.4643 20.2603 16.3151V14.0583C20.2603 13.9092 20.2011 13.7661 20.0956 13.6606C19.9901 13.5552 19.847 13.4958 19.6978 13.4958H17.4782ZM18.0407 14.6208H19.1353V15.7526H18.0407V14.6208Z" fill="black"/>
</svg>
