<svg width="18" height="19" viewBox="0 0 18 19" fill="none" xmlns="http://www.w3.org/2000/svg">
<path d="M15.5311 11.5275C15.4447 10.9272 14.9812 10.4592 14.3845 10.3197C12.0652 9.7761 11.4838 8.4405 11.3857 6.9591C10.9744 6.8826 10.2427 6.7998 9.0007 6.7998C7.7587 6.7998 7.027 6.8826 6.6157 6.9591C6.5176 8.4405 5.9362 9.7761 3.6169 10.3197C3.0202 10.4601 2.5567 10.9272 2.4703 11.5275L2.023 14.6253C1.8655 15.7161 2.6665 16.6998 3.7807 16.6998H14.2207C15.334 16.6998 16.1359 15.7161 15.9784 14.6253L15.5311 11.5275ZM9.0007 14.4426C7.7452 14.4426 6.7273 13.4346 6.7273 12.1926C6.7273 10.9506 7.7452 9.9426 9.0007 9.9426C10.2562 9.9426 11.2741 10.9506 11.2741 12.1926C11.2741 13.4346 10.2553 14.4426 9.0007 14.4426ZM17.9557 5.8998C17.9341 4.5498 14.4979 2.3007 9.0007 2.2998C3.5026 2.3007 0.0663972 4.5498 0.0456972 5.8998C0.0249972 7.2498 0.0645972 9.0066 2.3272 8.7141C4.9741 8.3712 4.8112 7.4469 4.8112 6.1257C4.8112 5.2041 6.964 4.9818 9.0007 4.9818C11.0374 4.9818 13.1893 5.2041 13.1902 6.1257C13.1902 7.4469 13.0273 8.3712 15.6742 8.7141C17.9359 9.0066 17.9764 7.2498 17.9557 5.8998Z" fill="#1B46EB"/>
</svg>
