<svg width="97" height="28" viewBox="0 0 97 28" fill="none" xmlns="http://www.w3.org/2000/svg">
<g clip-path="url(#clip0_432_931)">
<path d="M13.378 27.5C20.7599 27.5 26.7553 21.4623 26.7553 14.0035C26.7546 6.54397 20.7599 0.5 13.378 0.5C5.98439 0.5 0 6.54397 0 14.0035C0 21.4623 5.98439 27.5 13.378 27.5Z" fill="#C00C3F"/>
<path d="M12.8406 8.07802V19.9236H16.5682V18.8583H13.9148V8.07802H12.8406ZM9.10594 11.3105C9.99365 11.3105 10.7087 10.582 10.7087 9.6925C10.7087 8.80226 9.99365 8.07031 9.10594 8.07031C8.21962 8.07031 7.50391 8.80156 7.50391 9.6925C7.50391 10.5827 8.21962 11.3105 9.10594 11.3105Z" fill="white"/>
<path d="M13.9159 2.70389C13.7758 2.69758 13.5109 2.68848 13.3833 2.68848C7.20815 2.68848 2.18359 7.76516 2.18359 13.9968C2.18359 17.0248 3.34871 19.8622 5.4584 21.9957C7.57641 24.1243 10.3866 25.301 13.3833 25.301C16.3682 25.301 19.1783 24.1243 21.2929 21.9957C23.4067 19.8622 24.5767 17.0248 24.5767 13.9968V13.4946H16.5797V14.5348H23.5101C23.5101 14.5579 23.5101 14.6679 23.5059 14.6973C23.1536 20.0254 18.747 24.2455 13.3826 24.2455C10.6667 24.2455 8.12083 23.1787 6.20463 21.2413C4.28219 19.3131 3.22318 16.7425 3.22318 13.9961C3.22318 11.268 4.28219 8.68412 6.20463 6.75024C8.12083 4.81567 10.6674 3.74892 13.3826 3.74892C13.4991 3.74892 13.7848 3.74892 13.9152 3.75663L13.9159 2.70389Z" fill="white"/>
<path d="M36.8275 5.05725H32.8086V22.6309H45.154V19.21H36.8275V5.05725ZM53.997 15.9342H57.2705V19.0076C56.6664 19.2395 55.4902 19.4713 54.3702 19.4713C50.7521 19.4713 49.5467 17.6145 49.5467 13.8469C49.5467 10.2509 50.6945 8.13351 54.3126 8.13351C56.3231 8.13351 57.4716 8.7702 58.4176 9.98894L60.9163 7.66773C59.394 5.46559 56.7233 4.79809 54.2259 4.79809C48.5973 4.79809 45.6415 7.90167 45.6415 13.8161C45.6415 19.7024 48.3109 22.8922 54.1975 22.8922C56.8967 22.8922 59.5376 22.1967 60.9725 21.1824V12.6562H53.997V15.9342ZM92.6969 5.02993V0.602539H89.4623V5.02993H85.1868V8.15313H89.4623V12.5287H92.6969V8.15313H97.0016V5.02993H92.6969Z" fill="#6D6E71"/>
<path d="M78.4803 5.0498V15.2025C78.4803 18.0084 77.1009 19.3882 74.7672 19.3882C72.4335 19.3882 71.0541 18.0084 71.0541 15.2025V5.0498H67.1094V15.262C67.1094 20.8038 70.0284 22.884 74.6258 22.884C74.6736 22.884 74.7201 22.8833 74.7672 22.8833C74.8151 22.8833 74.8616 22.884 74.9087 22.884C79.5068 22.884 82.4265 20.8031 82.4265 15.262V5.0498H78.4803Z" fill="#6D6E71"/>
</g>
<defs>
<clipPath id="clip0_432_931">
<rect width="97" height="27" fill="white" transform="translate(0 0.5)"/>
</clipPath>
</defs>
</svg>
