<svg width="157" height="37" viewBox="0 0 157 37" fill="none" xmlns="http://www.w3.org/2000/svg">
<mask id="mask0_501_669" style="mask-type:luminance" maskUnits="userSpaceOnUse" x="0" y="5" width="13" height="27">
<path d="M0 5.36621H12.7535V31.6328H0V5.36621Z" fill="white"/>
</mask>
<g mask="url(#mask0_501_669)">
<path d="M10.1769 11.5049C9.94108 11.3064 2.52965 6.36357 1.79799 5.971C0.881202 5.47805 0.0988477 6.01115 0.0371415 7.09295C0.0217147 7.345 0.101052 19.4166 0.107664 20.2307C0.00628787 21.8189 0.477904 23.1995 1.58863 24.3438C2.12636 24.9014 12.0237 31.2049 12.0325 31.1826C12.1956 31.0331 12.2573 17.7682 12.1471 17.0232C12.4292 14.8396 11.8959 12.9548 10.1769 11.5049Z" fill="#00D7FF"/>
</g>
<path d="M27.9362 29.9832C27.9495 27.9111 27.9803 12.0543 27.9715 11.8937C27.901 10.0981 27.1803 8.61038 25.7104 7.6178C23.1738 5.90699 17.5938 2.39169 17.4086 2.31808C17.1949 2.21994 16.9899 2.17979 16.8026 2.18871C16.6307 2.19094 16.4808 2.23332 16.3508 2.32031C16.0136 2.51883 15.7888 2.92924 15.7558 3.4891C15.7448 3.701 15.7866 29.7156 15.7756 30.7015C15.7712 31.0985 15.8549 31.3327 16.2472 31.5669C17.7546 32.4636 19.2334 33.4093 20.6923 34.3885C21.5452 34.9618 22.3231 34.9462 23.165 34.3841C24.4212 33.5476 25.6707 32.6889 26.9886 31.9573C27.8393 31.4866 28.1831 30.9178 27.9362 29.9832Z" fill="#009CDF"/>
<mask id="mask1_501_669" style="mask-type:luminance" maskUnits="userSpaceOnUse" x="31" y="0" width="13" height="37">
<path d="M31.0156 0.421875H43.7911V36.5786H31.0156V0.421875Z" fill="white"/>
</mask>
<g mask="url(#mask1_501_669)">
<path d="M43.5245 11.0972C43.5444 10.7649 43.5466 10.437 43.5245 10.1202C43.5245 10.0979 43.5245 10.0756 43.5245 10.0533C43.4077 8.06593 42.4755 6.56033 40.8557 5.47853C39.064 4.28297 37.2877 3.06287 35.452 1.94092C34.7027 1.48366 33.9776 0.957262 33.138 0.638297C33.1335 0.636067 33.1269 0.631605 33.1225 0.629375C32.8669 0.493313 32.6223 0.43755 32.3997 0.448703C32.0427 0.426398 31.7914 0.557998 31.6416 0.872502C31.4829 1.09332 31.3815 1.38998 31.3595 1.75133C31.3551 1.84724 31.4961 33.9266 31.4653 36.0701C31.6372 36.3378 31.8157 36.1616 31.9699 36.0612C34.3589 34.5021 36.7456 32.9407 39.1323 31.3793C41.4287 30.2306 43.2777 28.6871 43.5069 25.8833C43.5995 24.748 43.5223 12.2615 43.5245 11.0972Z" fill="#1B46EB"/>
</g>
<path d="M64.328 28.14C62.344 28.14 60.552 27.692 58.952 26.796C57.368 25.916 56.12 24.7 55.208 23.148C54.312 21.58 53.864 19.82 53.864 17.868C53.864 15.916 54.312 14.164 55.208 12.612C56.12 11.044 57.368 9.82 58.952 8.94C60.552 8.044 62.344 7.596 64.328 7.596C66.072 7.596 67.632 7.916 69.008 8.556C70.4 9.196 71.528 10.076 72.392 11.196C73.256 12.316 73.824 13.572 74.096 14.964H69.68C69.44 14.004 68.84 13.204 67.88 12.564C66.936 11.924 65.784 11.604 64.424 11.604C63.256 11.604 62.2 11.876 61.256 12.42C60.312 12.948 59.568 13.692 59.024 14.652C58.496 15.596 58.232 16.668 58.232 17.868C58.232 19.052 58.496 20.124 59.024 21.084C59.568 22.044 60.312 22.796 61.256 23.34C62.2 23.868 63.256 24.132 64.424 24.132C65.32 24.132 66.16 23.956 66.944 23.604C67.744 23.252 68.4 22.796 68.912 22.236C69.44 21.676 69.76 21.1 69.872 20.508H74.288C74.08 21.836 73.528 23.084 72.632 24.252C71.736 25.42 70.56 26.356 69.104 27.06C67.664 27.78 66.072 28.14 64.328 28.14ZM83.2861 27.996C81.8781 27.996 80.6141 27.676 79.4941 27.036C78.3901 26.412 77.5261 25.54 76.9021 24.42C76.2781 23.3 75.9661 22.036 75.9661 20.628C75.9661 19.22 76.2781 17.956 76.9021 16.836C77.5261 15.716 78.3901 14.844 79.4941 14.22C80.6141 13.58 81.8781 13.26 83.2861 13.26C84.6941 13.26 85.9501 13.58 87.0541 14.22C88.1741 14.844 89.0461 15.716 89.6701 16.836C90.2941 17.956 90.6061 19.22 90.6061 20.628C90.6061 21.092 90.5741 21.548 90.5101 21.996H80.2141C80.3741 22.812 80.7261 23.444 81.2701 23.892C81.8141 24.34 82.4861 24.564 83.2861 24.564C83.8941 24.564 84.4301 24.468 84.8941 24.276C85.3741 24.068 85.7021 23.796 85.8781 23.46H90.1741C89.9341 24.356 89.4861 25.14 88.8301 25.812C88.1741 26.5 87.3661 27.036 86.4061 27.42C85.4461 27.804 84.4061 27.996 83.2861 27.996ZM86.4301 19.236C86.2541 18.388 85.8941 17.748 85.3501 17.316C84.8061 16.868 84.1181 16.644 83.2861 16.644C82.4541 16.644 81.7741 16.868 81.2461 17.316C80.7181 17.748 80.3661 18.388 80.1901 19.236H86.4301ZM101.427 17.268H98.6431V27.66H94.3711V17.268H91.5871V13.596H94.3711V9.42H98.6431V13.596H101.427V17.268ZM105.564 6.804C106.316 6.804 106.94 7.052 107.436 7.548C107.932 8.044 108.18 8.668 108.18 9.42C108.18 10.172 107.932 10.796 107.436 11.292C106.94 11.788 106.316 12.036 105.564 12.036C104.812 12.036 104.188 11.788 103.692 11.292C103.196 10.796 102.948 10.172 102.948 9.42C102.948 8.668 103.196 8.044 103.692 7.548C104.188 7.052 104.812 6.804 105.564 6.804ZM107.7 27.708H103.428V13.596H107.7V27.708ZM123.265 24.036V27.66H110.065V24.804L117.025 17.22H110.377V13.596H122.809V16.452L115.849 24.036H123.265ZM131.825 27.996C130.417 27.996 129.153 27.676 128.033 27.036C126.929 26.412 126.065 25.54 125.441 24.42C124.817 23.3 124.505 22.036 124.505 20.628C124.505 19.22 124.817 17.956 125.441 16.836C126.065 15.716 126.929 14.844 128.033 14.22C129.153 13.58 130.417 13.26 131.825 13.26C133.233 13.26 134.489 13.58 135.593 14.22C136.713 14.844 137.585 15.716 138.209 16.836C138.833 17.956 139.145 19.22 139.145 20.628C139.145 21.092 139.113 21.548 139.049 21.996H128.753C128.913 22.812 129.265 23.444 129.809 23.892C130.353 24.34 131.025 24.564 131.825 24.564C132.433 24.564 132.969 24.468 133.433 24.276C133.913 24.068 134.241 23.796 134.417 23.46H138.713C138.473 24.356 138.025 25.14 137.369 25.812C136.713 26.5 135.905 27.036 134.945 27.42C133.985 27.804 132.945 27.996 131.825 27.996ZM134.969 19.236C134.793 18.388 134.433 17.748 133.889 17.316C133.345 16.868 132.657 16.644 131.825 16.644C130.993 16.644 130.313 16.868 129.785 17.316C129.257 17.748 128.905 18.388 128.729 19.236H134.969ZM141.655 13.596H145.927V15.036C146.807 13.852 148.119 13.26 149.863 13.26C150.951 13.26 151.911 13.516 152.743 14.028C153.575 14.524 154.215 15.244 154.663 16.188C155.127 17.132 155.359 18.244 155.359 19.524V27.66H151.087V20.244C151.087 19.172 150.871 18.356 150.439 17.796C150.023 17.22 149.415 16.932 148.615 16.932C147.783 16.932 147.127 17.244 146.647 17.868C146.167 18.492 145.927 19.348 145.927 20.436V27.66H141.655V13.596Z" fill="#1B46EB"/>
</svg>
