<svg width="147" height="36" viewBox="0 0 147 36" fill="none" xmlns="http://www.w3.org/2000/svg">
<mask id="mask0_501_669" style="mask-type:luminance" maskUnits="userSpaceOnUse" x="0" y="8" width="12" height="25">
<path d="M0 8.90332H11.9243V32.5448H0V8.90332Z" fill="white"/>
</mask>
<g mask="url(#mask0_501_669)">
<path d="M9.51359 14.4285C9.29311 14.2498 2.36356 9.80098 1.67947 9.44764C0.822288 9.00396 0.0908004 9.48377 0.0331062 10.4575C0.0186824 10.6843 0.0928614 21.5494 0.0990431 22.2822C0.00425856 23.7116 0.445212 24.9543 1.48372 25.9842C1.98648 26.4861 11.2403 32.1596 11.2486 32.1395C11.401 32.005 11.4587 20.0658 11.3557 19.3953C11.6194 17.4299 11.1208 15.7334 9.51359 14.4285Z" fill="#00D7FF"/>
</g>
<path d="M23.527 31.6574C23.5394 29.7924 23.5682 15.5203 23.56 15.3758C23.494 13.7597 22.8202 12.4206 21.4459 11.5272C19.0742 9.9874 13.8569 6.82343 13.6839 6.75718C13.484 6.66884 13.2924 6.63271 13.1172 6.64074C12.9565 6.64275 12.8164 6.68089 12.6948 6.75919C12.3795 6.93786 12.1694 7.30726 12.1385 7.81117C12.1282 8.00189 12.1673 31.4165 12.157 32.3039C12.1529 32.6612 12.2312 32.872 12.598 33.0828C14.0074 33.8899 15.39 34.7411 16.754 35.6224C17.5515 36.1384 18.2788 36.1243 19.066 35.6184C20.2405 34.8656 21.4088 34.0926 22.641 33.4342C23.4363 33.0106 23.7578 32.4986 23.527 31.6574Z" fill="#009CDF"/>
<mask id="mask1_501_669" style="mask-type:luminance" maskUnits="userSpaceOnUse" x="24" y="0" width="12" height="33">
<path d="M24.0547 0.00195312H35.9996V32.5451H24.0547V0.00195312Z" fill="white"/>
</mask>
<g mask="url(#mask1_501_669)">
<path d="M35.7492 9.61184C35.7677 9.31271 35.7698 9.01759 35.7492 8.73251C35.7492 8.71244 35.7492 8.69236 35.7492 8.67229C35.64 6.88351 34.7684 5.52839 33.2539 4.5547C31.5787 3.47863 29.9179 2.38047 28.2015 1.37065C27.5009 0.959089 26.823 0.485296 26.0379 0.198209C26.0338 0.196201 26.0276 0.192186 26.0235 0.190178C25.7845 0.067715 25.5558 0.0175251 25.3477 0.0275629C25.0139 0.00748718 24.779 0.125935 24.6388 0.409007C24.4905 0.607759 24.3957 0.87477 24.3751 1.2C24.371 1.28633 24.5028 30.1596 24.474 32.0889C24.6347 32.3298 24.8016 32.1712 24.9459 32.0809C27.1795 30.6776 29.411 29.2723 31.6426 27.8669C33.7896 26.833 35.5184 25.4438 35.7327 22.9202C35.8193 21.8983 35.7471 10.6598 35.7492 9.61184Z" fill="#1B46EB"/>
</g>
<path d="M54.328 27.6429C52.344 27.6429 50.552 27.1949 48.952 26.2989C47.368 25.4189 46.12 24.2029 45.208 22.6509C44.312 21.0829 43.864 19.3229 43.864 17.3709C43.864 15.4189 44.312 13.6669 45.208 12.1149C46.12 10.5469 47.368 9.32293 48.952 8.44293C50.552 7.54693 52.344 7.09893 54.328 7.09893C56.072 7.09893 57.632 7.41893 59.008 8.05893C60.4 8.69893 61.528 9.57893 62.392 10.6989C63.256 11.8189 63.824 13.0749 64.096 14.4669H59.68C59.44 13.5069 58.84 12.7069 57.88 12.0669C56.936 11.4269 55.784 11.1069 54.424 11.1069C53.256 11.1069 52.2 11.3789 51.256 11.9229C50.312 12.4509 49.568 13.1949 49.024 14.1549C48.496 15.0989 48.232 16.1709 48.232 17.3709C48.232 18.5549 48.496 19.6269 49.024 20.5869C49.568 21.5469 50.312 22.2989 51.256 22.8429C52.2 23.3709 53.256 23.6349 54.424 23.6349C55.32 23.6349 56.16 23.4589 56.944 23.1069C57.744 22.7549 58.4 22.2989 58.912 21.7389C59.44 21.1789 59.76 20.6029 59.872 20.0109H64.288C64.08 21.3389 63.528 22.5869 62.632 23.7549C61.736 24.9229 60.56 25.8589 59.104 26.5629C57.664 27.2829 56.072 27.6429 54.328 27.6429ZM73.2861 27.4989C71.8781 27.4989 70.6141 27.1789 69.4941 26.5389C68.3901 25.9149 67.5261 25.0429 66.9021 23.9229C66.2781 22.8029 65.9661 21.5389 65.9661 20.1309C65.9661 18.7229 66.2781 17.4589 66.9021 16.3389C67.5261 15.2189 68.3901 14.3469 69.4941 13.7229C70.6141 13.0829 71.8781 12.7629 73.2861 12.7629C74.6941 12.7629 75.9501 13.0829 77.0541 13.7229C78.1741 14.3469 79.0461 15.2189 79.6701 16.3389C80.2941 17.4589 80.6061 18.7229 80.6061 20.1309C80.6061 20.5949 80.5741 21.0509 80.5101 21.4989H70.2141C70.3741 22.3149 70.7261 22.9469 71.2701 23.3949C71.8141 23.8429 72.4861 24.0669 73.2861 24.0669C73.8941 24.0669 74.4301 23.9709 74.8941 23.7789C75.3741 23.5709 75.7021 23.2989 75.8781 22.9629H80.1741C79.9341 23.8589 79.4861 24.6429 78.8301 25.3149C78.1741 26.0029 77.3661 26.5389 76.4061 26.9229C75.4461 27.3069 74.4061 27.4989 73.2861 27.4989ZM76.4301 18.7389C76.2541 17.8909 75.8941 17.2509 75.3501 16.8189C74.8061 16.3709 74.1181 16.1469 73.2861 16.1469C72.4541 16.1469 71.7741 16.3709 71.2461 16.8189C70.7181 17.2509 70.3661 17.8909 70.1901 18.7389H76.4301ZM91.4271 16.7709H88.6431V27.1629H84.3711V16.7709H81.5871V13.0989H84.3711V8.92293H88.6431V13.0989H91.4271V16.7709ZM95.5643 6.30693C96.3163 6.30693 96.9403 6.55493 97.4363 7.05093C97.9323 7.54693 98.1803 8.17093 98.1803 8.92293C98.1803 9.67493 97.9323 10.2989 97.4363 10.7949C96.9403 11.2909 96.3163 11.5389 95.5643 11.5389C94.8123 11.5389 94.1883 11.2909 93.6923 10.7949C93.1963 10.2989 92.9483 9.67493 92.9483 8.92293C92.9483 8.17093 93.1963 7.54693 93.6923 7.05093C94.1883 6.55493 94.8123 6.30693 95.5643 6.30693ZM97.7003 27.2109H93.4283V13.0989H97.7003V27.2109ZM113.265 23.5389V27.1629H100.065V24.3069L107.025 16.7229H100.377V13.0989H112.809V15.9549L105.849 23.5389H113.265ZM121.825 27.4989C120.417 27.4989 119.153 27.1789 118.033 26.5389C116.929 25.9149 116.065 25.0429 115.441 23.9229C114.817 22.8029 114.505 21.5389 114.505 20.1309C114.505 18.7229 114.817 17.4589 115.441 16.3389C116.065 15.2189 116.929 14.3469 118.033 13.7229C119.153 13.0829 120.417 12.7629 121.825 12.7629C123.233 12.7629 124.489 13.0829 125.593 13.7229C126.713 14.3469 127.585 15.2189 128.209 16.3389C128.833 17.4589 129.145 18.7229 129.145 20.1309C129.145 20.5949 129.113 21.0509 129.049 21.4989H118.753C118.913 22.3149 119.265 22.9469 119.809 23.3949C120.353 23.8429 121.025 24.0669 121.825 24.0669C122.433 24.0669 122.969 23.9709 123.433 23.7789C123.913 23.5709 124.241 23.2989 124.417 22.9629H128.713C128.473 23.8589 128.025 24.6429 127.369 25.3149C126.713 26.0029 125.905 26.5389 124.945 26.9229C123.985 27.3069 122.945 27.4989 121.825 27.4989ZM124.969 18.7389C124.793 17.8909 124.433 17.2509 123.889 16.8189C123.345 16.3709 122.657 16.1469 121.825 16.1469C120.993 16.1469 120.313 16.3709 119.785 16.8189C119.257 17.2509 118.905 17.8909 118.729 18.7389H124.969ZM131.655 13.0989H135.927V14.5389C136.807 13.3549 138.119 12.7629 139.863 12.7629C140.951 12.7629 141.911 13.0189 142.743 13.5309C143.575 14.0269 144.215 14.7469 144.663 15.6909C145.127 16.6349 145.359 17.7469 145.359 19.0269V27.1629H141.087V19.7469C141.087 18.6749 140.871 17.8589 140.439 17.2989C140.023 16.7229 139.415 16.4349 138.615 16.4349C137.783 16.4349 137.127 16.7469 136.647 17.3709C136.167 17.9949 135.927 18.8509 135.927 19.9389V27.1629H131.655V13.0989Z" fill="#1B46EB"/>
</svg>
