<svg width="147" height="36" viewBox="0 0 147 36" fill="none" xmlns="http://www.w3.org/2000/svg">
<mask id="mask0_574_541" style="mask-type:luminance" maskUnits="userSpaceOnUse" x="0" y="8" width="12" height="25">
<path d="M0 8.90137H11.9243V32.5429H0V8.90137Z" fill="white"/>
</mask>
<g mask="url(#mask0_574_541)">
<path d="M9.51359 14.4265C9.29311 14.2479 2.36356 9.79902 1.67947 9.44569C0.822288 9.00201 0.0908004 9.48182 0.0331062 10.4555C0.0186824 10.6824 0.0928614 21.5475 0.0990431 22.2803C0.00425856 23.7097 0.445212 24.9524 1.48372 25.9823C1.98648 26.4842 11.2403 32.1576 11.2486 32.1376C11.401 32.0031 11.4587 20.0639 11.3557 19.3933C11.6194 17.4279 11.1208 15.7315 9.51359 14.4265Z" fill="#00D7FF"/>
</g>
<path d="M23.527 31.6555C23.5394 29.7904 23.5682 15.5184 23.56 15.3738C23.494 13.7577 22.8202 12.4187 21.4459 11.5253C19.0742 9.98545 13.8569 6.82148 13.6839 6.75523C13.484 6.66689 13.2924 6.63075 13.1172 6.63878C12.9565 6.64079 12.8164 6.67894 12.6948 6.75723C12.3795 6.93591 12.1694 7.30531 12.1385 7.80921C12.1282 7.99994 12.1673 31.4146 12.157 32.3019C12.1529 32.6593 12.2312 32.8701 12.598 33.0809C14.0074 33.8879 15.39 34.7391 16.754 35.6205C17.5515 36.1364 18.2788 36.1224 19.066 35.6165C20.2405 34.8636 21.4088 34.0907 22.641 33.4322C23.4363 33.0086 23.7578 32.4967 23.527 31.6555Z" fill="#009CDF"/>
<mask id="mask1_574_541" style="mask-type:luminance" maskUnits="userSpaceOnUse" x="24" y="0" width="12" height="33">
<path d="M24.0547 0H35.9996V32.5432H24.0547V0Z" fill="white"/>
</mask>
<g mask="url(#mask1_574_541)">
<path d="M35.7492 9.60989C35.7677 9.31076 35.7698 9.01564 35.7492 8.73056C35.7492 8.71048 35.7492 8.69041 35.7492 8.67033C35.64 6.88156 34.7684 5.52643 33.2539 4.55275C31.5787 3.47667 29.9179 2.37852 28.2015 1.36869C27.5009 0.957135 26.823 0.483343 26.0379 0.196256C26.0338 0.194248 26.0276 0.190233 26.0235 0.188225C25.7845 0.0657619 25.5558 0.0155719 25.3477 0.0256098C25.0139 0.00553406 24.779 0.123982 24.6388 0.407054C24.4905 0.605806 24.3957 0.872817 24.3751 1.19805C24.371 1.28437 24.5028 30.1577 24.474 32.087C24.6347 32.3279 24.8016 32.1693 24.9459 32.0789C27.1795 30.6756 29.411 29.2703 31.6426 27.865C33.7896 26.8311 35.5184 25.4418 35.7327 22.9183C35.8193 21.8964 35.7471 10.6579 35.7492 9.60989Z" fill="#1B46EB"/>
</g>
<path d="M54.328 27.641C52.344 27.641 50.552 27.193 48.952 26.297C47.368 25.417 46.12 24.201 45.208 22.649C44.312 21.081 43.864 19.321 43.864 17.369C43.864 15.417 44.312 13.665 45.208 12.113C46.12 10.545 47.368 9.32098 48.952 8.44098C50.552 7.54498 52.344 7.09698 54.328 7.09698C56.072 7.09698 57.632 7.41698 59.008 8.05698C60.4 8.69698 61.528 9.57698 62.392 10.697C63.256 11.817 63.824 13.073 64.096 14.465H59.68C59.44 13.505 58.84 12.705 57.88 12.065C56.936 11.425 55.784 11.105 54.424 11.105C53.256 11.105 52.2 11.377 51.256 11.921C50.312 12.449 49.568 13.193 49.024 14.153C48.496 15.097 48.232 16.169 48.232 17.369C48.232 18.553 48.496 19.625 49.024 20.585C49.568 21.545 50.312 22.297 51.256 22.841C52.2 23.369 53.256 23.633 54.424 23.633C55.32 23.633 56.16 23.457 56.944 23.105C57.744 22.753 58.4 22.297 58.912 21.737C59.44 21.177 59.76 20.601 59.872 20.009H64.288C64.08 21.337 63.528 22.585 62.632 23.753C61.736 24.921 60.56 25.857 59.104 26.561C57.664 27.281 56.072 27.641 54.328 27.641ZM73.2861 27.497C71.8781 27.497 70.6141 27.177 69.4941 26.537C68.3901 25.913 67.5261 25.041 66.9021 23.921C66.2781 22.801 65.9661 21.537 65.9661 20.129C65.9661 18.721 66.2781 17.457 66.9021 16.337C67.5261 15.217 68.3901 14.345 69.4941 13.721C70.6141 13.081 71.8781 12.761 73.2861 12.761C74.6941 12.761 75.9501 13.081 77.0541 13.721C78.1741 14.345 79.0461 15.217 79.6701 16.337C80.2941 17.457 80.6061 18.721 80.6061 20.129C80.6061 20.593 80.5741 21.049 80.5101 21.497H70.2141C70.3741 22.313 70.7261 22.945 71.2701 23.393C71.8141 23.841 72.4861 24.065 73.2861 24.065C73.8941 24.065 74.4301 23.969 74.8941 23.777C75.3741 23.569 75.7021 23.297 75.8781 22.961H80.1741C79.9341 23.857 79.4861 24.641 78.8301 25.313C78.1741 26.001 77.3661 26.537 76.4061 26.921C75.4461 27.305 74.4061 27.497 73.2861 27.497ZM76.4301 18.737C76.2541 17.889 75.8941 17.249 75.3501 16.817C74.8061 16.369 74.1181 16.145 73.2861 16.145C72.4541 16.145 71.7741 16.369 71.2461 16.817C70.7181 17.249 70.3661 17.889 70.1901 18.737H76.4301ZM91.4271 16.769H88.6431V27.161H84.3711V16.769H81.5871V13.097H84.3711V8.92098H88.6431V13.097H91.4271V16.769ZM95.5643 6.30498C96.3163 6.30498 96.9403 6.55298 97.4363 7.04898C97.9323 7.54498 98.1803 8.16898 98.1803 8.92098C98.1803 9.67298 97.9323 10.297 97.4363 10.793C96.9403 11.289 96.3163 11.537 95.5643 11.537C94.8123 11.537 94.1883 11.289 93.6923 10.793C93.1963 10.297 92.9483 9.67298 92.9483 8.92098C92.9483 8.16898 93.1963 7.54498 93.6923 7.04898C94.1883 6.55298 94.8123 6.30498 95.5643 6.30498ZM97.7003 27.209H93.4283V13.097H97.7003V27.209ZM113.265 23.537V27.161H100.065V24.305L107.025 16.721H100.377V13.097H112.809V15.953L105.849 23.537H113.265ZM121.825 27.497C120.417 27.497 119.153 27.177 118.033 26.537C116.929 25.913 116.065 25.041 115.441 23.921C114.817 22.801 114.505 21.537 114.505 20.129C114.505 18.721 114.817 17.457 115.441 16.337C116.065 15.217 116.929 14.345 118.033 13.721C119.153 13.081 120.417 12.761 121.825 12.761C123.233 12.761 124.489 13.081 125.593 13.721C126.713 14.345 127.585 15.217 128.209 16.337C128.833 17.457 129.145 18.721 129.145 20.129C129.145 20.593 129.113 21.049 129.049 21.497H118.753C118.913 22.313 119.265 22.945 119.809 23.393C120.353 23.841 121.025 24.065 121.825 24.065C122.433 24.065 122.969 23.969 123.433 23.777C123.913 23.569 124.241 23.297 124.417 22.961H128.713C128.473 23.857 128.025 24.641 127.369 25.313C126.713 26.001 125.905 26.537 124.945 26.921C123.985 27.305 122.945 27.497 121.825 27.497ZM124.969 18.737C124.793 17.889 124.433 17.249 123.889 16.817C123.345 16.369 122.657 16.145 121.825 16.145C120.993 16.145 120.313 16.369 119.785 16.817C119.257 17.249 118.905 17.889 118.729 18.737H124.969ZM131.655 13.097H135.927V14.537C136.807 13.353 138.119 12.761 139.863 12.761C140.951 12.761 141.911 13.017 142.743 13.529C143.575 14.025 144.215 14.745 144.663 15.689C145.127 16.633 145.359 17.745 145.359 19.025V27.161H141.087V19.745C141.087 18.673 140.871 17.857 140.439 17.297C140.023 16.721 139.415 16.433 138.615 16.433C137.783 16.433 137.127 16.745 136.647 17.369C136.167 17.993 135.927 18.849 135.927 19.937V27.161H131.655V13.097Z" fill="#1B46EB"/>
<path d="M54.328 27.641C52.344 27.641 50.552 27.193 48.952 26.297C47.368 25.417 46.12 24.201 45.208 22.649C44.312 21.081 43.864 19.321 43.864 17.369C43.864 15.417 44.312 13.665 45.208 12.113C46.12 10.545 47.368 9.32098 48.952 8.44098C50.552 7.54498 52.344 7.09698 54.328 7.09698C56.072 7.09698 57.632 7.41698 59.008 8.05698C60.4 8.69698 61.528 9.57698 62.392 10.697C63.256 11.817 63.824 13.073 64.096 14.465H59.68C59.44 13.505 58.84 12.705 57.88 12.065C56.936 11.425 55.784 11.105 54.424 11.105C53.256 11.105 52.2 11.377 51.256 11.921C50.312 12.449 49.568 13.193 49.024 14.153C48.496 15.097 48.232 16.169 48.232 17.369C48.232 18.553 48.496 19.625 49.024 20.585C49.568 21.545 50.312 22.297 51.256 22.841C52.2 23.369 53.256 23.633 54.424 23.633C55.32 23.633 56.16 23.457 56.944 23.105C57.744 22.753 58.4 22.297 58.912 21.737C59.44 21.177 59.76 20.601 59.872 20.009H64.288C64.08 21.337 63.528 22.585 62.632 23.753C61.736 24.921 60.56 25.857 59.104 26.561C57.664 27.281 56.072 27.641 54.328 27.641ZM73.2861 27.497C71.8781 27.497 70.6141 27.177 69.4941 26.537C68.3901 25.913 67.5261 25.041 66.9021 23.921C66.2781 22.801 65.9661 21.537 65.9661 20.129C65.9661 18.721 66.2781 17.457 66.9021 16.337C67.5261 15.217 68.3901 14.345 69.4941 13.721C70.6141 13.081 71.8781 12.761 73.2861 12.761C74.6941 12.761 75.9501 13.081 77.0541 13.721C78.1741 14.345 79.0461 15.217 79.6701 16.337C80.2941 17.457 80.6061 18.721 80.6061 20.129C80.6061 20.593 80.5741 21.049 80.5101 21.497H70.2141C70.3741 22.313 70.7261 22.945 71.2701 23.393C71.8141 23.841 72.4861 24.065 73.2861 24.065C73.8941 24.065 74.4301 23.969 74.8941 23.777C75.3741 23.569 75.7021 23.297 75.8781 22.961H80.1741C79.9341 23.857 79.4861 24.641 78.8301 25.313C78.1741 26.001 77.3661 26.537 76.4061 26.921C75.4461 27.305 74.4061 27.497 73.2861 27.497ZM76.4301 18.737C76.2541 17.889 75.8941 17.249 75.3501 16.817C74.8061 16.369 74.1181 16.145 73.2861 16.145C72.4541 16.145 71.7741 16.369 71.2461 16.817C70.7181 17.249 70.3661 17.889 70.1901 18.737H76.4301ZM91.4271 16.769H88.6431V27.161H84.3711V16.769H81.5871V13.097H84.3711V8.92098H88.6431V13.097H91.4271V16.769ZM95.5643 6.30498C96.3163 6.30498 96.9403 6.55298 97.4363 7.04898C97.9323 7.54498 98.1803 8.16898 98.1803 8.92098C98.1803 9.67298 97.9323 10.297 97.4363 10.793C96.9403 11.289 96.3163 11.537 95.5643 11.537C94.8123 11.537 94.1883 11.289 93.6923 10.793C93.1963 10.297 92.9483 9.67298 92.9483 8.92098C92.9483 8.16898 93.1963 7.54498 93.6923 7.04898C94.1883 6.55298 94.8123 6.30498 95.5643 6.30498ZM97.7003 27.209H93.4283V13.097H97.7003V27.209ZM113.265 23.537V27.161H100.065V24.305L107.025 16.721H100.377V13.097H112.809V15.953L105.849 23.537H113.265ZM121.825 27.497C120.417 27.497 119.153 27.177 118.033 26.537C116.929 25.913 116.065 25.041 115.441 23.921C114.817 22.801 114.505 21.537 114.505 20.129C114.505 18.721 114.817 17.457 115.441 16.337C116.065 15.217 116.929 14.345 118.033 13.721C119.153 13.081 120.417 12.761 121.825 12.761C123.233 12.761 124.489 13.081 125.593 13.721C126.713 14.345 127.585 15.217 128.209 16.337C128.833 17.457 129.145 18.721 129.145 20.129C129.145 20.593 129.113 21.049 129.049 21.497H118.753C118.913 22.313 119.265 22.945 119.809 23.393C120.353 23.841 121.025 24.065 121.825 24.065C122.433 24.065 122.969 23.969 123.433 23.777C123.913 23.569 124.241 23.297 124.417 22.961H128.713C128.473 23.857 128.025 24.641 127.369 25.313C126.713 26.001 125.905 26.537 124.945 26.921C123.985 27.305 122.945 27.497 121.825 27.497ZM124.969 18.737C124.793 17.889 124.433 17.249 123.889 16.817C123.345 16.369 122.657 16.145 121.825 16.145C120.993 16.145 120.313 16.369 119.785 16.817C119.257 17.249 118.905 17.889 118.729 18.737H124.969ZM131.655 13.097H135.927V14.537C136.807 13.353 138.119 12.761 139.863 12.761C140.951 12.761 141.911 13.017 142.743 13.529C143.575 14.025 144.215 14.745 144.663 15.689C145.127 16.633 145.359 17.745 145.359 19.025V27.161H141.087V19.745C141.087 18.673 140.871 17.857 140.439 17.297C140.023 16.721 139.415 16.433 138.615 16.433C137.783 16.433 137.127 16.745 136.647 17.369C136.167 17.993 135.927 18.849 135.927 19.937V27.161H131.655V13.097Z" fill="white"/>
</svg>
