<svg width="25" height="26" viewBox="0 0 25 26" fill="none" xmlns="http://www.w3.org/2000/svg">
<path opacity="0.3" d="M15.625 6.75195H20.8333V9.87695H15.625V6.75195Z" fill="#1B46EB"/>
<path d="M3.1224 11.9577C3.1224 14.5098 4.95573 16.6139 7.3724 17.0723L5.82031 15.5202L7.28906 14.041L11.4557 18.2181L7.28906 22.3743L5.82031 20.9056L7.46615 19.2598V19.1973C5.69532 18.9842 4.0638 18.1301 2.87968 16.7963C1.69555 15.4625 1.0408 13.7413 1.03906 11.9577C1.03906 7.92643 4.29948 4.66602 8.33073 4.66602H11.4557V6.74935H8.33073C5.45573 6.74935 3.1224 9.08268 3.1224 11.9577ZM22.9141 11.9577V4.66602H13.5391V11.9577H22.9141ZM20.8307 9.87435H15.6224V6.74935H20.8307V9.87435ZM13.5391 14.041H22.9141V21.3327H13.5391V14.041Z" fill="#1B46EB"/>
</svg>
