<svg width="40" height="40" viewBox="0 0 40 40" fill="none" xmlns="http://www.w3.org/2000/svg">
<path fill-rule="evenodd" clip-rule="evenodd" d="M16.1118 11.8775C16.4557 11.5717 16.9825 11.6027 17.2882 11.9466L26.4549 19.4466C26.7355 19.7624 26.7355 20.2382 26.4549 20.554L17.2882 28.054C16.9825 28.398 16.4557 28.4289 16.1118 28.1231C15.9255 27.9576 15.831 27.7272 15.832 27.4962C15.8549 22.4992 15.832 17.5015 15.832 12.5045C15.831 12.2734 15.9255 12.0431 16.1118 11.8775Z" fill="white"/>
<path fill-rule="evenodd" clip-rule="evenodd" d="M15.832 12.5L15.8323 12.5042C15.8322 17.5012 15.8551 22.4989 15.8323 27.4959V27.5L15.832 12.5Z" fill="white"/>
<mask id="mask0_658_845" style="mask-type:luminance" maskUnits="userSpaceOnUse" x="15" y="11" width="12" height="18">
<path fill-rule="evenodd" clip-rule="evenodd" d="M16.1118 11.8775C16.4557 11.5717 16.9825 11.6027 17.2882 11.9466L26.4549 19.4466C26.7355 19.7624 26.7355 20.2382 26.4549 20.554L17.2882 28.054C16.9825 28.398 16.4557 28.4289 16.1118 28.1231C15.9255 27.9576 15.831 27.7272 15.832 27.4962C15.8549 22.4992 15.832 17.5015 15.832 12.5045C15.831 12.2734 15.9255 12.0431 16.1118 11.8775Z" fill="white"/>
<path fill-rule="evenodd" clip-rule="evenodd" d="M15.832 12.5L15.8323 12.5042C15.8322 17.5012 15.8551 22.4989 15.8323 27.4959V27.5L15.832 12.5Z" fill="white"/>
</mask>
<g mask="url(#mask0_658_845)">
<path d="M15.8336 12.5048L16.2502 12.5029C16.2492 12.2731 16.0624 12.0876 15.8327 12.0881C15.6029 12.0886 15.4169 12.2751 15.4169 12.5048H15.8336ZM15.8336 27.4966H15.4169C15.4169 27.7263 15.6029 27.9126 15.8327 27.9132C16.0624 27.9137 16.2492 27.7281 16.2502 27.4984L15.8336 27.4966ZM15.4169 12.5066C15.4397 17.5026 15.4169 22.4967 15.4169 27.4966H16.2502C16.2502 22.5021 16.2731 17.5011 16.2502 12.5029L15.4169 12.5066ZM15.4169 12.5048C15.4168 17.5046 15.4397 22.4987 15.4169 27.4947L16.2502 27.4984C16.2731 22.5003 16.2502 17.4991 16.2502 12.5048H15.4169ZM15.8333 12.5006L16.6649 12.4464C16.6356 11.9976 16.2556 11.6531 15.8062 11.6677C15.3567 11.6824 15 12.051 15 12.5006H15.8333ZM15.8336 27.5006H15.0002C15.0002 27.9609 15.3734 28.334 15.8336 28.334C16.2938 28.334 16.6669 27.9609 16.6669 27.5006H15.8336ZM17.2897 11.947L16.6669 12.5006C16.6962 12.5336 16.728 12.5641 16.7621 12.592L17.2897 11.947ZM26.4564 19.447L27.0792 18.8934C27.05 18.8605 27.0183 18.8299 26.9842 18.8021L26.4564 19.447ZM26.4564 20.5543L26.9842 21.1992C27.0183 21.1714 27.05 21.1408 27.0792 21.1079L26.4564 20.5543ZM17.2897 28.0543L16.7621 27.4093C16.728 27.4372 16.6962 27.4677 16.6669 27.5006L17.2897 28.0543ZM15.8336 12.5048L15.002 12.5591C15.0314 13.0085 15.4125 13.3533 15.8627 13.3376C16.3128 13.3219 16.669 12.9511 16.6669 12.5006L15.8336 12.5048ZM15.8336 27.4966H16.6669C16.6669 27.0371 16.295 26.6642 15.8355 26.6632C15.376 26.6621 15.0024 27.0332 15.0002 27.4927L15.8336 27.4966ZM17.9126 11.3934C17.3011 10.7054 16.2477 10.6435 15.5597 11.255L16.6669 12.5006L17.9126 11.3934ZM26.9842 18.8021L17.8175 11.3021L16.7621 12.592L25.9288 20.092L26.9842 18.8021ZM27.0792 21.1079C27.6406 20.4765 27.6406 19.5249 27.0792 18.8934L25.8336 20.0006L27.0792 21.1079ZM17.8175 28.6992L26.9842 21.1992L25.9288 19.9093L16.7621 27.4093L17.8175 28.6992ZM15.5597 28.7463C16.2477 29.3579 17.3011 29.2959 17.9126 28.6079L16.6669 27.5006L15.5597 28.7463ZM15.0017 12.5549L15.002 12.5591L16.6652 12.4505L16.6649 12.4464L15.0017 12.5549ZM15.0002 27.4966V27.5006H16.6669V27.4966H15.0002ZM15.0002 27.4927C14.9982 27.953 15.1871 28.4151 15.5597 28.7463L16.6669 27.5006L15.0002 27.4927ZM15.5597 11.255C15.1871 11.5862 14.9982 12.0483 15.0002 12.5086L16.6669 12.5006L15.5597 11.255ZM15 12.5006L15.0002 27.5006H16.6669V12.5006H15Z" fill="white"/>
</g>
</svg>
