<svg width="23" height="22" viewBox="0 0 23 22" fill="none" xmlns="http://www.w3.org/2000/svg">
<path d="M20.5666 1.94415C20.3885 1.76395 20.1763 1.621 19.9423 1.52363C19.7084 1.42625 19.4575 1.37639 19.2041 1.37696H13.9219C13.5754 1.3776 13.2432 1.51486 12.9972 1.75895L2.43767 12.3164C2.07736 12.6774 1.875 13.1667 1.875 13.6768C1.875 14.1868 2.07736 14.6761 2.43767 15.0372L7.46502 20.0645C7.82616 20.425 8.31558 20.6274 8.82584 20.6274C9.3361 20.6274 9.82551 20.425 10.1867 20.0645L20.7419 9.51137C20.9865 9.26584 21.1243 8.93367 21.1252 8.58711V3.30196C21.1268 3.0499 21.0782 2.80005 20.9823 2.56695C20.8864 2.33384 20.7451 2.12213 20.5666 1.94415ZM17.0002 6.87696C16.7283 6.87696 16.4624 6.79632 16.2363 6.64523C16.0102 6.49414 15.834 6.2794 15.7299 6.02815C15.6258 5.7769 15.5986 5.50043 15.6516 5.23371C15.7047 4.96698 15.8356 4.72198 16.0279 4.52969C16.2202 4.33739 16.4652 4.20643 16.732 4.15338C16.9987 4.10032 17.2752 4.12755 17.5264 4.23162C17.7777 4.33569 17.9924 4.51193 18.1435 4.73805C18.2946 4.96417 18.3752 5.23001 18.3752 5.50196C18.3752 5.86663 18.2303 6.21637 17.9725 6.47423C17.7146 6.73209 17.3649 6.87696 17.0002 6.87696Z" fill="#1B46EB"/>
</svg>
