<svg width="25" height="24" viewBox="0 0 25 24" fill="none" xmlns="http://www.w3.org/2000/svg">
<path d="M6.5 4.00352C6.7 3.80352 6.93767 3.70352 7.213 3.70352C7.48833 3.70352 7.72567 3.80352 7.925 4.00352L9.5 5.60352C9.7 5.80352 9.8 6.03685 9.8 6.30352C9.8 6.57018 9.7 6.80352 9.5 7.00352C9.3 7.20352 9.06267 7.30352 8.788 7.30352C8.51333 7.30352 8.27567 7.20352 8.075 7.00352L6.475 5.42852C6.275 5.22852 6.179 4.99118 6.187 4.71652C6.195 4.44185 6.29933 4.20418 6.5 4.00352ZM13.5 1.10352C13.7833 1.10352 14.021 1.19952 14.213 1.39152C14.405 1.58352 14.5007 1.82085 14.5 2.10352V4.35352C14.5 4.63685 14.404 4.87452 14.212 5.06652C14.02 5.25852 13.7827 5.35418 13.5 5.35352C13.2173 5.35285 12.98 5.25718 12.788 5.06652C12.596 4.87585 12.5 4.63818 12.5 4.35352V2.10352C12.5 1.82018 12.596 1.58285 12.788 1.39152C12.98 1.20018 13.2173 1.10418 13.5 1.10352ZM17.5 15.0035C17.7 14.8035 17.9377 14.7035 18.213 14.7035C18.4883 14.7035 18.7257 14.8035 18.925 15.0035L20.5 16.6035C20.7 16.8035 20.8 17.0368 20.8 17.3035C20.8 17.5702 20.7 17.8035 20.5 18.0035C20.3 18.2035 20.0623 18.3035 19.787 18.3035C19.5117 18.3035 19.2743 18.2035 19.075 18.0035L17.475 16.4285C17.275 16.2285 17.179 15.9912 17.187 15.7165C17.195 15.4418 17.2993 15.2042 17.5 15.0035ZM20.5 4.00352C20.7 4.20352 20.8 4.44118 20.8 4.71652C20.8 4.99185 20.7 5.22918 20.5 5.42852L18.9 7.02852C18.7 7.22852 18.4667 7.32452 18.2 7.31652C17.9333 7.30852 17.7 7.20418 17.5 7.00352C17.3 6.80285 17.2 6.56552 17.2 6.29152C17.2 6.01752 17.3 5.77985 17.5 5.57852L19.075 4.00352C19.275 3.80352 19.5127 3.70352 19.788 3.70352C20.0633 3.70352 20.3007 3.80352 20.5 4.00352ZM23.4 11.0035C23.4 11.2868 23.304 11.5245 23.112 11.7165C22.92 11.9085 22.6827 12.0042 22.4 12.0035H20.15C19.8667 12.0035 19.6293 11.9075 19.438 11.7155C19.2467 11.5235 19.1507 11.2862 19.15 11.0035C19.1493 10.7208 19.2453 10.4835 19.438 10.2915C19.6307 10.0995 19.868 10.0035 20.15 10.0035H22.4C22.6833 10.0035 22.921 10.0995 23.113 10.2915C23.305 10.4835 23.4007 10.7208 23.4 11.0035ZM5.625 21.7035L2.8 18.8785C2.6 18.6785 2.5 18.4452 2.5 18.1785C2.5 17.9118 2.6 17.6785 2.8 17.4785L11.875 8.37852C12.4583 7.79518 13.1667 7.50352 14 7.50352C14.8333 7.50352 15.5417 7.79518 16.125 8.37852C16.7083 8.96185 17 9.67018 17 10.5035C17 11.3368 16.7083 12.0452 16.125 12.6285L7.025 21.7035C6.825 21.9035 6.59167 22.0035 6.325 22.0035C6.05833 22.0035 5.825 21.9035 5.625 21.7035ZM12.6 13.3285L14.7 11.2035C14.9 11.0035 15 10.7702 15 10.5035C15 10.2368 14.9 10.0035 14.7 9.80352C14.5 9.60352 14.2667 9.50352 14 9.50352C13.7333 9.50352 13.5 9.60352 13.3 9.80352L11.175 11.9285L12.6 13.3285Z" fill="#1B46EB"/>
</svg>
