<svg width="20" height="33" viewBox="0 0 20 33" fill="none" xmlns="http://www.w3.org/2000/svg">
<g clip-path="url(#clip0_432_1599)">
<path d="M12.0833 29.702C12.0833 29.1348 11.8793 28.6492 11.4714 28.2453C11.0634 27.8414 10.5729 27.6395 10 27.6395C9.42708 27.6395 8.93663 27.8414 8.52865 28.2453C8.12066 28.6492 7.91667 29.1348 7.91667 29.702C7.91667 30.2691 8.12066 30.7547 8.52865 31.1586C8.93663 31.5625 9.42708 31.7645 10 31.7645C10.5729 31.7645 11.0634 31.5625 11.4714 31.1586C11.8793 30.7547 12.0833 30.2691 12.0833 29.702ZM17.5 25.577V7.42695C17.5 7.20352 17.4175 7.01016 17.2526 6.84687C17.0877 6.68359 16.8924 6.60195 16.6667 6.60195H3.33333C3.10764 6.60195 2.91233 6.68359 2.7474 6.84687C2.58247 7.01016 2.5 7.20352 2.5 7.42695V25.577C2.5 25.8004 2.58247 25.9937 2.7474 26.157C2.91233 26.3203 3.10764 26.402 3.33333 26.402H16.6667C16.8924 26.402 17.0877 26.3203 17.2526 26.157C17.4175 25.9937 17.5 25.8004 17.5 25.577ZM12.5 3.71445C12.5 3.43945 12.3611 3.30195 12.0833 3.30195H7.91667C7.63889 3.30195 7.5 3.43945 7.5 3.71445C7.5 3.98945 7.63889 4.12695 7.91667 4.12695H12.0833C12.3611 4.12695 12.5 3.98945 12.5 3.71445ZM20 3.30195V29.702C20 30.5957 19.6701 31.3691 19.0104 32.0223C18.3507 32.6754 17.5694 33.002 16.6667 33.002H3.33333C2.43056 33.002 1.64931 32.6754 0.989583 32.0223C0.329861 31.3691 0 30.5957 0 29.702V3.30195C0 2.4082 0.329861 1.63477 0.989583 0.981641C1.64931 0.328516 2.43056 0.00195312 3.33333 0.00195312H16.6667C17.5694 0.00195312 18.3507 0.328516 19.0104 0.981641C19.6701 1.63477 20 2.4082 20 3.30195Z" fill="#F9001C"/>
</g>
<defs>
<clipPath id="clip0_432_1599">
<rect width="20" height="33" fill="white" transform="translate(0 0.00195312)"/>
</clipPath>
</defs>
</svg>
