<svg width="24" height="24" viewBox="0 0 24 24" fill="none" xmlns="http://www.w3.org/2000/svg">
<path d="M20.7055 14.704C20.5903 13.9036 19.9723 13.2796 19.1767 13.0936C16.0843 12.3688 15.3091 10.588 15.1783 8.61279C14.6299 8.51079 13.6543 8.40039 11.9983 8.40039C10.3423 8.40039 9.36672 8.51079 8.81833 8.61279C8.68752 10.588 7.91232 12.3688 4.81993 13.0936C4.02433 13.2808 3.40633 13.9036 3.29113 14.704L2.69473 18.8344C2.48473 20.2888 3.55272 21.6004 5.03832 21.6004H18.9583C20.4427 21.6004 21.5119 20.2888 21.3019 18.8344L20.7055 14.704ZM11.9983 18.5908C10.3243 18.5908 8.96712 17.2468 8.96712 15.5908C8.96712 13.9348 10.3243 12.5908 11.9983 12.5908C13.6723 12.5908 15.0295 13.9348 15.0295 15.5908C15.0295 17.2468 13.6711 18.5908 11.9983 18.5908ZM23.9383 7.20039C23.9095 5.40039 19.3279 2.40159 11.9983 2.40039C4.66752 2.40159 0.0859254 5.40039 0.0583254 7.20039C0.0307254 9.00039 0.0835255 11.3428 3.10033 10.9528C6.62953 10.4956 6.41232 9.26319 6.41232 7.50159C6.41232 6.27279 9.28272 5.97639 11.9983 5.97639C14.7139 5.97639 17.5831 6.27279 17.5843 7.50159C17.5843 9.26319 17.3671 10.4956 20.8963 10.9528C23.9119 11.3428 23.9659 9.00039 23.9383 7.20039Z" fill="#1B46EB"/>
</svg>
