<svg width="24" height="24" viewBox="0 0 24 24" fill="none" xmlns="http://www.w3.org/2000/svg">
<path d="M18 3.00195C19.0609 3.00195 20.0783 3.42338 20.8284 4.17353C21.5786 4.92367 22 5.94109 22 7.00195V15.002C22 16.0628 21.5786 17.0802 20.8284 17.8304C20.0783 18.5805 19.0609 19.002 18 19.002H13.276L8.514 21.859C8.37059 21.945 8.20788 21.9937 8.04077 22.0007C7.87366 22.0076 7.70749 21.9725 7.55746 21.8985C7.40743 21.8246 7.27833 21.7142 7.18199 21.5775C7.08565 21.4408 7.02514 21.2821 7.006 21.116L7 21.002V19.002H6C4.97376 19.002 3.98677 18.6075 3.24319 17.9002C2.4996 17.1929 2.05631 16.2269 2.005 15.202L2 15.002V7.00195C2 5.94109 2.42143 4.92367 3.17157 4.17353C3.92172 3.42338 4.93913 3.00195 6 3.00195H18ZM14 12.002H8C7.73478 12.002 7.48043 12.1073 7.29289 12.2948C7.10536 12.4824 7 12.7367 7 13.002C7 13.2672 7.10536 13.5215 7.29289 13.7091C7.48043 13.8966 7.73478 14.002 8 14.002H14C14.2652 14.002 14.5196 13.8966 14.7071 13.7091C14.8946 13.5215 15 13.2672 15 13.002C15 12.7367 14.8946 12.4824 14.7071 12.2948C14.5196 12.1073 14.2652 12.002 14 12.002ZM16 8.00195H8C7.73478 8.00195 7.48043 8.10731 7.29289 8.29485C7.10536 8.48238 7 8.73674 7 9.00195C7 9.26717 7.10536 9.52152 7.29289 9.70906C7.48043 9.8966 7.73478 10.002 8 10.002H16C16.2652 10.002 16.5196 9.8966 16.7071 9.70906C16.8946 9.52152 17 9.26717 17 9.00195C17 8.73674 16.8946 8.48238 16.7071 8.29485C16.5196 8.10731 16.2652 8.00195 16 8.00195Z" fill="#1B46EB"/>
</svg>
