<svg width="25" height="24" viewBox="0 0 25 24" fill="none" xmlns="http://www.w3.org/2000/svg">
<g clip-path="url(#clip0_432_1516)">
<path fill-rule="evenodd" clip-rule="evenodd" d="M12.5 2.50195C11.0891 2.50046 9.69573 2.81389 8.4214 3.4194C7.14708 4.0249 6.02397 4.9072 5.134 6.00195H2.105C4.18 2.41495 8.058 0.00195312 12.5 0.00195312C16.942 0.00195312 20.82 2.41495 22.895 6.00195H19.865C18.9751 4.90733 17.8522 4.02511 16.578 3.41961C15.3039 2.81411 13.9107 2.50061 12.5 2.50195ZM2.105 18.002H5.135C6.02487 19.0966 7.14781 19.9788 8.42195 20.5843C9.69609 21.1898 11.0893 21.5033 12.5 21.502C13.9109 21.5034 15.3043 21.19 16.5786 20.5845C17.8529 19.979 18.976 19.0967 19.866 18.002H22.895C21.8416 19.8266 20.3263 21.3417 18.5015 22.3949C16.6768 23.4482 14.6069 24.0024 12.5 24.002C8.058 24.002 4.18 21.589 2.105 18.002ZM14.5 8.00195H13.5V16.002H18.5V14.002H15.5V13.002H17.5V11.002H15.5V10.002H18.5V8.00195H14.5ZM19.5 8.00195H24.5V10.002H21.5V11.002H23.5V13.002H21.5V14.002H24.5V16.002H19.5V8.00195ZM1.5 8.00195H0.5V16.002H2.5V13.002H5V11.002H2.5V10.002H5.5V8.00195H1.5ZM7.5 8.00195H6.5V16.002H8.5V13.502H9.465L11.168 16.057L12.832 14.947L11.691 13.235C12.177 12.928 12.5 12.385 12.5 11.768V9.73595C12.5 8.77795 11.723 8.00195 10.766 8.00195H7.5ZM8.5 11.502V10.002H10.5V11.502H8.5Z" fill="#1B46EB"/>
</g>
<defs>
<clipPath id="clip0_432_1516">
<rect width="24" height="24" fill="white" transform="translate(0.5 0.00195312)"/>
</clipPath>
</defs>
</svg>
