<svg width="58" height="58" viewBox="0 0 58 58" fill="none" xmlns="http://www.w3.org/2000/svg">
<rect width="56" height="57.9986" rx="10" fill="#EEF0FB"/>
<path d="M41.7146 12.1133C42.0148 12.1133 42.3121 12.1679 42.5894 12.274C42.8668 12.3802 43.1188 12.5357 43.331 12.7318C43.5432 12.9279 43.7116 13.1607 43.8264 13.4169C43.9411 13.673 44.0001 13.9476 44 14.2248V45.8881C44 46.4478 43.7592 46.9846 43.3306 47.3804C42.902 47.7762 42.3207 47.9986 41.7146 47.9986H14.2854C13.6793 47.9986 13.098 47.7762 12.6694 47.3804C12.2408 46.9846 12 46.4478 12 45.8881V14.2248C11.9999 13.9476 12.0589 13.673 12.1737 13.4169C12.2884 13.1607 12.4568 12.9279 12.669 12.7318C12.8812 12.5357 13.1332 12.3802 13.4106 12.274C13.6879 12.1679 13.9852 12.1133 14.2854 12.1133" fill="white"/>
<path d="M41.7146 12.1133C42.0148 12.1133 42.3121 12.1679 42.5894 12.274C42.8668 12.3802 43.1188 12.5357 43.331 12.7318C43.5432 12.9279 43.7116 13.1607 43.8264 13.4169C43.9411 13.673 44.0001 13.9476 44 14.2248V45.8881C44 46.4478 43.7592 46.9846 43.3306 47.3804C42.902 47.7762 42.3207 47.9986 41.7146 47.9986H14.2854C13.6793 47.9986 13.098 47.7762 12.6694 47.3804C12.2408 46.9846 12 46.4478 12 45.8881V14.2248C11.9999 13.9476 12.0589 13.673 12.1737 13.4169C12.2884 13.1607 12.4568 12.9279 12.669 12.7318C12.8812 12.5357 13.1332 12.3802 13.4106 12.274C13.6879 12.1679 13.9852 12.1133 14.2854 12.1133" stroke="#1B46EB" stroke-width="2" stroke-linecap="round" stroke-linejoin="round"/>
<path d="M28.0021 24.7758V37.4411M28.0021 24.7758L23.43 28.9979M28.0021 24.7758L32.5741 28.9979M32.5741 16.3326H23.43C22.8239 16.3326 22.2425 16.1103 21.8139 15.7145C21.3853 15.3187 21.1445 14.7819 21.1445 14.2221V12.1105C21.1445 11.5508 21.3853 11.014 21.8139 10.6182C22.2425 10.2224 22.8239 10 23.43 10H32.5741C32.8743 10 33.1715 10.0546 33.4488 10.1607C33.7261 10.2667 33.978 10.4222 34.1902 10.6182C34.4025 10.8141 34.5708 11.0468 34.6857 11.3029C34.8005 11.5589 34.8596 11.8334 34.8596 12.1105V14.2221C34.8596 14.7819 34.6188 15.3187 34.1902 15.7145C33.7616 16.1103 33.1803 16.3326 32.5741 16.3326Z" stroke="#1B46EB" stroke-width="2" stroke-linecap="round" stroke-linejoin="round"/>
</svg>
