<svg width="58" height="58" viewBox="0 0 58 58" fill="none" xmlns="http://www.w3.org/2000/svg">
<rect width="58" height="58" rx="10" fill="#EEF0FB"/>
<rect x="14" y="10" width="26.5345" height="38" rx="8" fill="white"/>
<path d="M39.1751 10H18.8249C17.4753 10.0721 16.2122 10.6146 15.31 11.5098C14.4078 12.405 13.9393 13.5806 14.0063 14.7811V43.2189C13.9393 44.4194 14.4078 45.595 15.31 46.4902C16.2122 47.3854 17.4753 47.9279 18.8249 48H39.1751C40.5247 47.9279 41.7878 47.3854 42.69 46.4902C43.5922 45.595 44.0607 44.4194 43.9937 43.2189V14.7811C44.0607 13.5806 43.5922 12.405 42.69 11.5098C41.7878 10.6146 40.5247 10.0721 39.1751 10ZM41.8425 43.2189C41.9087 43.9123 41.6665 44.6012 41.1677 45.1375C40.669 45.6739 39.9535 46.015 39.1751 46.0876H18.8249C18.0465 46.015 17.331 45.6739 16.8323 45.1375C16.3335 44.6012 16.0913 43.9123 16.1575 43.2189V14.7811C16.0913 14.0877 16.3335 13.3988 16.8323 12.8625C17.331 12.3261 18.0465 11.985 18.8249 11.9124H22.1162V12.8878C22.1162 13.395 22.3429 13.8814 22.7463 14.2401C23.1497 14.5987 23.6969 14.8002 24.2674 14.8002H33.7326C34.3031 14.8002 34.8503 14.5987 35.2537 14.2401C35.6571 13.8814 35.8838 13.395 35.8838 12.8878V11.9124H39.1751C39.9535 11.985 40.669 12.3261 41.1677 12.8625C41.6665 13.3988 41.9087 14.0877 41.8425 14.7811V43.2189Z" fill="#1B46EB"/>
<path d="M24.6967 42.2601H33.3014C33.5866 42.2601 33.8602 42.1593 34.0619 41.98C34.2636 41.8007 34.377 41.5575 34.377 41.3039C34.377 41.0503 34.2636 40.807 34.0619 40.6277C33.8602 40.4484 33.5866 40.3477 33.3014 40.3477H24.6967C24.4114 40.3477 24.1378 40.4484 23.9361 40.6277C23.7344 40.807 23.6211 41.0503 23.6211 41.3039C23.6211 41.5575 23.7344 41.8007 23.9361 41.98C24.1378 42.1593 24.4114 42.2601 24.6967 42.2601Z" fill="#1B46EB"/>
</svg>
