<svg width="58" height="58" viewBox="0 0 58 58" fill="none" xmlns="http://www.w3.org/2000/svg">
<rect width="58" height="58" rx="10" fill="#EEF0FB"/>
<path d="M40.4 10V12.5333H32.8V10H15.0667C13.7229 10 12.4342 10.5338 11.484 11.484C10.5338 12.4342 10 13.7229 10 15.0667V34.0667H12.5333V39.1333H10V42.9333C10 44.2771 10.5338 45.5658 11.484 46.516C12.4342 47.4662 13.7229 48 15.0667 48H42.9333C44.2771 48 45.5658 47.4662 46.516 46.516C47.4662 45.5658 48 44.2771 48 42.9333V15.0667C48 13.7229 47.4662 12.4342 46.516 11.484C45.5658 10.5338 44.2771 10 42.9333 10H40.4ZM40.4 34.0667H44.2H40.4ZM40.4 29H44.2H40.4ZM21.4 34.0667H25.2H21.4ZM21.4 29H25.2H21.4ZM35.3333 39.1333V42.9333V39.1333ZM30.2667 39.1333V42.9333V39.1333ZM35.3333 20.1333V23.9333V20.1333ZM30.2667 20.1333V23.9333V20.1333Z" fill="white"/>
<path d="M40.4 34.0667H44.2M40.4 29H44.2M21.4 34.0667H25.2M21.4 29H25.2M35.3333 39.1333V42.9333M30.2667 39.1333V42.9333M35.3333 20.1333V23.9333M30.2667 20.1333V23.9333M40.4 10V12.5333H32.8V10H15.0667C13.7229 10 12.4342 10.5338 11.484 11.484C10.5338 12.4342 10 13.7229 10 15.0667V34.0667H12.5333V39.1333H10V42.9333C10 44.2771 10.5338 45.5658 11.484 46.516C12.4342 47.4662 13.7229 48 15.0667 48H42.9333C44.2771 48 45.5658 47.4662 46.516 46.516C47.4662 45.5658 48 44.2771 48 42.9333V15.0667C48 13.7229 47.4662 12.4342 46.516 11.484C45.5658 10.5338 44.2771 10 42.9333 10H40.4Z" stroke="#1B46EB" stroke-width="2" stroke-linecap="round" stroke-linejoin="round"/>
<path d="M15.0664 15.0664V20.1331M20.1331 15.0664V20.1331M25.1997 23.9331H40.3997V39.1331H25.1997V23.9331Z" stroke="#1B46EB" stroke-width="2" stroke-linecap="round" stroke-linejoin="round"/>
</svg>
