<svg width="69" height="28" viewBox="0 0 69 28" fill="none" xmlns="http://www.w3.org/2000/svg">
<path fill-rule="evenodd" clip-rule="evenodd" d="M65.6475 20.6014C64.3429 20.6014 63.6773 21.4564 63.5731 21.586C63.2334 20.9646 62.6338 20.6014 61.8385 20.6014C60.6912 20.6014 60.0386 21.2624 59.9332 21.3788C59.8824 21.1974 59.6469 20.7182 58.9031 20.7182C58.6949 20.7182 58.3817 20.7832 58.3556 20.7832C58.3817 20.9254 58.5252 21.5989 58.5252 22.5314C58.5252 23.1146 58.5252 26.625 58.5252 26.625H60.0384V22.4538C60.0637 22.4278 60.6261 21.8578 61.3031 21.8578C61.9954 21.8578 62.3214 22.3631 62.3214 23.0496V26.6249H63.8339V22.4537C63.8733 22.4152 64.4209 21.8576 65.1121 21.8576C65.8033 21.8576 66.1161 22.363 66.1161 23.0494V26.6247H67.6425V22.8164C67.6426 21.4696 66.8733 20.6014 65.6475 20.6014ZM49.0955 25.537C48.065 25.537 47.3352 24.7337 47.3352 23.6845C47.3352 22.5185 48.1693 21.8195 49.0955 21.8195C49.5911 21.8195 49.7999 21.9621 50.1265 21.9621C50.478 21.9621 50.6737 21.7929 50.8434 21.4563C50.9476 21.2759 51.0005 21.1584 51.0005 21.1584C50.9216 21.1192 50.1657 20.6012 48.861 20.6012C46.9562 20.6012 45.8221 21.962 45.8221 23.6845C45.8221 25.5758 47.1269 26.754 48.861 26.754C50.1267 26.754 50.8826 26.2494 51.0257 26.1458L50.5042 25.1227C50.3872 25.2 49.8384 25.537 49.0955 25.537ZM32.5312 20.6014C31.0834 20.6014 29.8702 21.7675 29.8702 23.6847C29.8702 25.641 31.0576 26.7542 32.8185 26.7542C34.2267 26.7542 34.9567 26.1459 35.0483 26.0935C35.0483 26.0935 34.905 25.8737 34.8662 25.8092C34.6701 25.4847 34.4488 25.3817 34.2005 25.3817C33.7048 25.3817 33.6403 25.5886 32.9615 25.5886C31.8009 25.5886 31.3964 24.6951 31.3702 24.0996H35.2435C35.2435 23.9434 35.2435 23.7365 35.2435 23.6459C35.2435 21.8195 34.188 20.6014 32.5312 20.6014ZM31.3702 23.0235C31.3702 22.3508 31.8396 21.7285 32.5178 21.7285C33.2611 21.7285 33.6658 22.3759 33.6785 23.0235H31.3702ZM37.8264 24.9673V18.8272C37.8264 18.1407 37.3695 17.6094 36.6393 17.6094C36.6002 17.6094 36.3265 17.6094 36.3265 17.6094V25.5629C36.3265 26.3015 36.7826 26.754 37.5792 26.754C38.5571 26.754 38.8441 26.0679 38.8441 25.4077C38.8049 25.4332 38.5958 25.5116 38.3872 25.5116C38.0354 25.5116 37.8264 25.3168 37.8264 24.9673ZM27.7309 24.7597V21.8457H28.9963L29.4397 20.718H27.7309V18.9569C27.7309 18.9569 27.6009 18.9435 27.5878 18.9569C26.922 18.9569 26.218 19.2285 26.218 20.7053V20.7182H25.1094V21.8459H26.218V25.2783C26.218 26.2495 26.8048 26.7543 27.6269 26.7543C28.2919 26.7543 29.1523 26.5608 29.1523 25.2526C29.1006 25.2784 28.7742 25.4849 28.4226 25.4849C27.9266 25.4846 27.7309 25.1874 27.7309 24.7597ZM42.013 20.6014C40.5651 20.6014 39.3389 21.7675 39.3389 23.6847C39.3389 25.641 40.5261 26.7542 42.301 26.7542C43.6959 26.7542 44.426 26.1459 44.5174 26.0935C44.5174 26.0935 44.3868 25.8737 44.3478 25.8092C44.1396 25.4847 43.9179 25.3817 43.6701 25.3817C43.1742 25.3817 43.1091 25.5886 42.4309 25.5886C41.2827 25.5886 40.8783 24.6951 40.8523 24.0996H44.7265C44.7265 23.9434 44.7265 23.7365 44.7265 23.6459C44.7267 21.8195 43.6571 20.6014 42.013 20.6014ZM40.839 23.0235C40.839 22.3508 41.322 21.7285 41.9872 21.7285C42.7308 21.7285 43.1478 22.3759 43.1603 23.0235H40.839ZM54.482 26.754C52.63 26.754 51.5215 25.5496 51.5215 23.6845C51.5215 21.8324 52.617 20.6012 54.482 20.6012C56.3467 20.6012 57.4435 21.8324 57.4435 23.6845C57.4435 25.4332 56.4386 26.754 54.482 26.754ZM54.482 25.6018C55.4079 25.6018 55.9437 24.8115 55.9437 23.6847C55.9437 22.5579 55.4205 21.7546 54.482 21.7546C53.5693 21.7546 53.021 22.5445 53.021 23.6847C53.021 24.7851 53.543 25.6018 54.482 25.6018Z" fill="#F57F26"/>
<path fill-rule="evenodd" clip-rule="evenodd" d="M5.84554 20.0686C4.93229 19.6414 4.17595 19.3053 4.17595 18.6059C4.17595 18.0743 4.6062 17.6989 5.4537 17.6989C5.75379 17.6989 6.01516 17.7243 6.27565 17.7757C6.40626 17.8022 6.54884 17.828 6.68004 17.828C7.41053 17.828 7.82748 17.3877 8.10127 16.5586L8.21873 16.2217C8.10126 16.1699 6.90182 15.6523 5.33639 15.6523C2.845 15.6523 1.52794 17.2321 1.52794 18.8907C1.52794 19.7194 1.78887 20.3153 2.19283 20.7942C2.72828 21.4026 3.47191 21.8047 4.17565 22.1413C5.20578 22.6468 6.13129 23.0093 6.13129 23.7474C6.13129 24.4084 5.45356 24.7838 4.54075 24.7838C3.27555 24.7838 2.18027 24.0718 2.0498 23.9943L1.01953 25.9113C1.202 26.0145 2.51951 26.8438 4.71022 26.8438C7.03228 26.8438 8.79289 25.5222 8.79289 23.4757C8.79289 21.4548 7.16304 20.7038 5.84554 20.0686ZM14.9366 21.0149L19.1618 15.8723H16.1493L12.7845 20.3021H12.7315V15.8723H10.2539V26.7526H10.41C11.48 26.7526 12.7572 26.2607 12.7572 24.4859V21.9858H12.7973L16.2272 26.6236H19.3839L14.9366 21.0149Z" fill="#E71836"/>
<path fill-rule="evenodd" clip-rule="evenodd" d="M19.2928 4.21484C18.4193 4.38374 17.1277 5.1732 17.1414 6.55959C17.1414 7.81612 18.185 8.5931 18.185 10.2383C18.185 11.482 17.4933 12.3239 16.75 12.7907C17.0501 12.7649 17.3762 12.7518 17.7413 12.7518C18.5111 12.7385 18.9667 12.8161 18.9933 12.8161L22.9059 8.04884C21.8236 6.4306 20.5584 5.18655 19.2928 4.21484Z" fill="#E71836"/>
<path fill-rule="evenodd" clip-rule="evenodd" d="M22.5811 17.1014C23.0765 16.3366 23.1415 15.12 23.1812 13.8893C23.2334 12.7362 23.4679 11.8684 25.02 11.8558C25.372 11.8558 25.698 11.9071 26.2849 11.9071C28.568 11.8954 30.0549 11.1172 30.9812 10.5988C29.0895 9.40773 26.3375 8.18995 22.9069 8.04688C22.6855 8.66949 20.9505 13.4621 20.8203 13.8508C20.8462 13.8626 21.1467 14.1999 21.5245 14.8606C22.0858 15.7673 22.3856 16.5321 22.5811 17.1014Z" fill="#E71836"/>
<path fill-rule="evenodd" clip-rule="evenodd" d="M14.3254 13.1901C14.1175 13.1901 14.0255 13.0611 13.9992 12.8277C13.9738 12.6071 12.9952 3.70856 12.8513 2.37441C12.8254 2.16677 12.7734 1.81724 12.7734 1.68708C12.7734 1.48062 12.9173 1.36426 13.0737 1.36426C13.5301 1.36426 16.0602 1.94652 18.7473 3.82493C17.9775 4.03183 16.5689 4.83537 16.5817 6.49367C16.5817 7.94463 17.6386 8.76035 17.6513 10.2245C17.6513 12.6071 14.8867 13.1901 14.3254 13.1901Z" fill="#F57F26"/>
<path fill-rule="evenodd" clip-rule="evenodd" d="M22.8164 17.7383C22.8562 17.8414 22.8952 17.9328 22.9349 17.9973C22.9996 18.1004 23.0775 18.1524 23.1695 18.1524C23.2347 18.1524 23.3127 18.1266 23.404 18.0882C23.5993 17.9973 31.7774 14.2144 33.003 13.6584C33.1861 13.5671 33.525 13.4245 33.6432 13.3595C33.7601 13.2945 33.8121 13.191 33.8121 13.1012C33.8121 13.0358 33.7859 12.9841 33.7601 12.9319C33.6039 12.6858 32.808 11.8576 31.4903 10.9502C30.4472 11.5198 28.8032 12.4014 26.3653 12.4136C25.7645 12.4136 25.6345 12.3756 25.2299 12.3756C24.0305 12.3878 23.7431 12.8932 23.6904 13.9291C23.6904 14.1243 23.6782 14.3829 23.6782 14.6681C23.6389 15.6002 23.5215 16.8827 22.8164 17.7383Z" fill="#F57F26"/>
</svg>
