<svg width="33" height="34" viewBox="0 0 33 34" fill="none" xmlns="http://www.w3.org/2000/svg">
<path d="M28.473 20.7173C28.3146 19.6167 27.4649 18.7587 26.3709 18.503C22.1189 17.5064 21.053 15.0578 20.8731 12.3419C20.1191 12.2016 18.7776 12.0498 16.5006 12.0498C14.2236 12.0498 12.8822 12.2016 12.1281 12.3419C11.9483 15.0578 10.8824 17.5064 6.63033 18.503C5.53638 18.7604 4.68663 19.6167 4.52823 20.7173L3.70818 26.3966C3.41943 28.3964 4.88793 30.1998 6.93063 30.1998H26.0706C28.1117 30.1998 29.5818 28.3964 29.2931 26.3966L28.473 20.7173ZM16.5006 26.0616C14.1989 26.0616 12.3327 24.2136 12.3327 21.9366C12.3327 19.6596 14.1989 17.8116 16.5006 17.8116C18.8024 17.8116 20.6685 19.6596 20.6685 21.9366C20.6685 24.2136 18.8007 26.0616 16.5006 26.0616ZM32.9181 10.3998C32.8785 7.9248 26.5788 3.80145 16.5006 3.7998C6.42078 3.80145 0.121077 7.9248 0.0831271 10.3998C0.0451771 12.8748 0.117777 16.0956 4.26588 15.5594C9.11853 14.9307 8.81988 13.2362 8.81988 10.814C8.81988 9.12435 12.7667 8.7168 16.5006 8.7168C20.2346 8.7168 24.1797 9.12435 24.1814 10.814C24.1814 13.2362 23.8827 14.9307 28.7354 15.5594C32.8818 16.0956 32.9561 12.8748 32.9181 10.3998Z" fill="white"/>
</svg>
